<svg xmlns="http://www.w3.org/2000/svg" viewBox="0 0 1024 1024">
  <title>agents-connect bubble hub</title>
  <path id="bg" d="M 601.62 0 c 147.85 0 221.77 0 278.24 28.77 a 263.99 263.99 0 0 1 115.37 115.37 c 28.77 56.47 28.77 130.39 28.77 278.24 L 1024 601.62 c 0 147.85 0 221.77 -28.77 278.24 a 263.99 263.99 0 0 1 -115.37 115.37 c -56.47 28.77 -130.39 28.77 -278.24 28.77 L 422.38 1024 c -147.85 0 -221.77 0 -278.24 -28.77 a 263.99 263.99 0 0 1 -115.37 -115.37 c -28.77 -56.47 -28.77 -130.39 -28.77 -278.24 L 0 422.38 c 0 -147.85 0 -221.77 28.77 -278.24 a 263.99 263.99 0 0 1 115.37 -115.37 c 56.47 -28.77 130.39 -28.77 278.24 -28.77 Z" fill="#2A2A2E"/>
  <defs>
    <g id="half">
      <rect x="352" y="448" width="112" height="32" fill="#2A2A2E"/>
      <circle cx="320" cy="464" r="48" fill="#2A2A2E"/>
    </g>
  </defs>
  <g id="glyph">
    <path fill="#E8E8EA" d="M 304 224 L 720 224 A 112 112 0 0 1 832 336 L 832 592 A 112 112 0 0 1 720 704 L 576 704 L 512 816 L 448 704 L 304 704 A 112 112 0 0 1 192 592 L 192 336 A 112 112 0 0 1 304 224 Z"/>
    <use href="#half"/>
    <use href="#half" transform="translate(1024,0) scale(-1,1)"/>
    <circle cx="512" cy="464" r="80" fill="#2A2A2E"/>
  </g>
</svg>
